<svg viewBox="0 0 512 512" xmlns="http://www.w3.org/2000/svg"><path d="M256.19 401.31Q156.53 351.62 57 301.66a.808.808 0 0 1-.44-.73l-.06-121.7c0-.31.18-.6.46-.74q75.9-37.97 151.52-75.64 2.08-1.04 4.39-1.04 43-.11 88.2-.06c.68 0 1.33.27 1.81.75l152.14 152.15c.63.62.98 1.47.98 2.36v12.18q0 1.37-.61 2.6l-29.98 59.95c-.14.29-.38.53-.67.67l-152.76 76.48c-.29.14-.63.14-.92-.01q-7.47-3.88-14.87-7.57Zm62.44-207.37c-.46 0-.77-.49-.56-.9l14.62-29.1c.17-.35.11-.77-.17-1.05L302.62 133c-.31-.32-.75-.5-1.2-.5H211.5q-1.19 0-2.26.54L87.89 193.77a.53.53 0 0 0-.14.85L271.12 378c.29.29.73.35 1.09.17l117.1-58.61q2.24-1.12 3.65-1.96 1.63-.97 2.65-3.03 14.37-28.87 29.2-58.37c.2-.41.13-.89-.19-1.21l-60.29-60.28c-.45-.45-1.06-.71-1.71-.71l-43.99-.06Z"/><path d="M268.96 191.29q1.18 1.19 2.1 2.25c.25.28.16.72-.17.89l-59.82 29.94c-.53.26-1.16.16-1.58-.25l-29.39-29.27a.757.757 0 0 1 .19-1.21l59.54-29.8c.64-.32 1.41-.2 1.92.3q14.22 14.02 27.21 27.15ZM339.97 262.41q11.79 11.55 23.35 23.42c.21.21.15.56-.11.69l-60.25 30.15c-.36.18-.8.12-1.09-.17l-60.63-60.63a.399.399 0 0 1 .11-.64l60.2-30.04c.44-.22.97-.14 1.32.2q11.87 11.55 22.97 22.87 7.22 7.37 14.13 14.15Z"/></svg>